# xmcd
#
# Track frame offsets:
#	150
#	7164
#	17548
#	29630
#	52802
#	111551
#	125701
#	144263
#	165218
#	188261
#	226238
#	250725
#	260747
#	285653
#	292202
#	312469
#	319511
#	321315
#
# Disc length: 4554 seconds
#
# Revision: 1
# Processed by: cddbd v1.5.2PL0 Copyright (c) Steve Scherf et al.
# Submitted via: EZCDAudioConverter 8.0.2.1
#
DISCID=0111c812
DTITLE=Lm.JB.Nguyễn Sang - Lòng Chúa Xót Thương
DYEAR=2004
DGENRE=Thanh Ca
TTITLE0=Giới thiệu
TTITLE1=Cầu xin Chúa Thánh Thần
TTITLE2=Thông điệp lòng xót thương
TTITLE3=Bài ca thống hối
TTITLE4=Ý chỉ Tuần Cửu Nhật
TTITLE5=Kính lạy Cha, Kinh Kính mừng, Kinh Tin kính
TTITLE6=Lần chuỗi thương xót
TTITLE7=Lòng thương xót Chúa
TTITLE8=Xin cho con biết lắng nghe
TTITLE9=Đọc lời Chúa, Chia sẻ lời Chúa, cầu nguyện
TTITLE10=Trái tim Chúa
TTITLE11=Kinh cầu xin lòng thương xót của Chúa
TTITLE12=Trái tim nhân hậu
TTITLE13=Lời tận hiến
TTITLE14=Mẹ là bóng mát
TTITLE15=Kính Cám ơn, Kính Trông cậy
TTITLE16=Ban phép lành
TTITLE17=Tín thác vào Chúa
EXTD=
EXTT0=
EXTT1=
EXTT2=
EXTT3=
EXTT4=
EXTT5=
EXTT6=
EXTT7=
EXTT8=
EXTT9=
EXTT10=
EXTT11=
EXTT12=
EXTT13=
EXTT14=
EXTT15=
EXTT16=
EXTT17=
PLAYORDER=
